ply
format ascii 1.0
element vertex 723
property double x
property double y
property double z
property uchar red
property uchar green
property uchar blue
end_header
1.2771292555654028 0.2701390644572182 0.9124215634394509 242 250 253
1.2328933024348985 0.2695086321929329 0.9135020500997243 142 152 154
1.2180838977772239 0.2673659360454252 0.9080907374503197 136 114 90
1.1897231509520305 0.2648475101199325 0.8706225670360603 113 51 52
1.2629218523324517 0.2745254668947174 0.9225099759720238 0 32 143
1.2703321519544108 0.2741899292698152 0.9178664330925984 97 156 222
1.2941046304623980 0.2716742332887672 0.9006356898571861 52 19 26
1.2743500721635974 0.2734167597254945 0.9100027889119330 69 149 244
1.3038765452896048 0.2515014246564239 0.9014173280138593 30 14 15
1.3019977265999940 0.2517158894965348 0.9014756466592887 27 11 11
1.2037352727062203 0.2715555118044722 0.8756797913611488 158 136 112
1.1231703850766535 0.2654228330008018 0.8770500728515107 205 159 107
1.2441837728942906 0.2674065667872021 0.9245844473809081 92 80 102
1.1921805048188736 0.2716947340227645 0.8741648252341155 127 53 54
1.1243181347285096 0.2735054323132478 0.8885184360498962 90 62 41
1.1243181347285096 0.2735054323132478 0.8885184360498962 90 62 41
1.2779150165563322 0.2717581338208644 0.9099314122357420 51 70 129
1.2619595126455088 0.2728844138175439 0.9216058284758663 0 18 109
1.2761072579803721 0.2723849843470870 0.9113872048629154 247 252 255
1.2788012025674074 0.2720650498474054 0.9093193634147066 47 56 87
1.2710444667033076 0.2732307581239756 0.9136948430529759 247 251 255
1.2172432997120686 0.2683729989286261 0.9103027850508213 53 33 26
1.2938725484354876 0.2712307185434968 0.9007219590948428 174 112 71
1.2615990458829101 0.2761357679409440 0.9209658408285563 9 36 83
1.2161327200735839 0.2677399891300989 0.9085481218536150 123 101 77
1.1972738809826509 0.2712806100563552 0.8849600801967408 142 99 108
1.2576178961176498 0.2763010562776881 0.9207788449576249 227 255 255
1.2576178961176498 0.2763010562776881 0.9207788449576249 227 255 255
1.2651027878417949 0.2789060747524520 0.9060666874962445 80 53 46
1.2725012117593257 0.2749281627352281 0.9132593494940664 234 250 250
1.2838368599828349 0.2773168477656684 0.9058705395656720 99 77 63
1.1165702872172945 0.2693689378456737 0.8818484996182795 106 50 35
1.2730302717148589 0.2766841269678171 0.9124739557182807 93 108 111
1.1377516820724269 0.2651507726399691 0.8912104680643498 204 72 49
1.1380825590112735 0.2661112580234255 0.8910520166005114 199 64 45
1.1380825590112735 0.2661112580234255 0.8910520166005114 199 64 45
1.2722040205875560 0.2728446318777196 0.9140217598857934 102 172 234
1.2718644006650808 0.2739762911776565 0.9133083975090120 31 58 137
1.1301871437004118 0.2717983381498596 0.8837633476626751 63 37 36
1.1301871437004118 0.2717983381498596 0.8837633476626751 63 37 36
1.2245491819865379 0.2685175360543031 0.9146241805887573 145 137 126
1.2798328580416845 0.2758498681844765 0.9088689048675572 59 50 45
1.2733966486106134 0.2760332721517839 0.9108715203977946 88 88 86
1.2179495887184220 0.2713190723080590 0.8897536912952750 13 11 12
1.2227741336491600 0.2699313625740389 0.8835760638219208 187 184 175
1.2785465406458063 0.2720162181680704 0.9099351270704344 64 83 115
1.1316145083496703 0.2721757535870598 0.8876878053075461 100 69 41
1.2732171690638512 0.2743902179738396 0.9098221896285184 32 36 65
1.2072103651580548 0.2728681945917245 0.8968674248646523 182 169 160
1.1331444774035793 0.2655856280678389 0.8929820096389078 222 84 73
1.1320840521711943 0.2660412351746841 0.8923801034028157 225 75 76
1.1320840521711943 0.2660412351746841 0.8923801034028157 225 75 76
1.1338568925280708 0.2661594318439757 0.8923618868072882 226 85 68
1.1338212341187541 0.2669718592160658 0.8921980692482440 224 81 75
1.1338212341187541 0.2669718592160658 0.8921980692482440 221 70 75
1.1337841066881109 0.2679449245956910 0.8923130268925289 220 76 67
1.1340535959901761 0.2677778764897611 0.8920714338728378 220 76 67
1.1320188834604930 0.2686870657984702 0.8928375137252981 227 77 76
1.1336965324826642 0.2679389845195991 0.8917672341959574 225 173 116
1.2772019824288665 0.2739348421941625 0.9245503081808174 245 249 250
1.2666376483183057 0.2718967600596318 0.9148864807701512 231 236 239
1.2698920285305157 0.2732790538484857 0.9179108989520238 249 253 254
1.1352667878449489 0.2646250391320569 0.8926330651550842 202 71 53
1.2685452849985113 0.2706180138963950 0.9187348310526907 169 211 251
1.1327587673174553 0.2666207557200299 0.8924831874538679 217 170 114
1.2318268227360918 0.2701721009201350 0.9138721235283856 15 14 19
1.2635065583873020 0.2751438225979118 0.9213774703497090 240 255 255
1.1187838046753003 0.2722732566081449 0.8802721985746278 165 108 63
1.2575589652754862 0.2735125245214112 0.9177383344320651 15 30 53
1.2735749942004648 0.2746781403763565 0.9099270316091018 24 25 56
1.2832262873231346 0.2753910560889848 0.9051419522844862 24 19 15
1.2750737272463508 0.2803410137008601 0.9096420611607018 25 21 22
1.2107852640815422 0.2675726945762101 0.9104579369425290 178 154 120
1.2781329280770537 0.2769924362931474 0.9090044246923112 68 60 47
1.1373013102408935 0.2659000319429707 0.8913437597786962 215 98 63
1.2783086324435389 0.2652268197184097 0.9145557854208382 253 254 255
1.2577114690721694 0.2709418766426040 0.9261133712014741 197 238 244
1.2312689047336947 0.2704955642347066 0.9133202311655290 11 11 13
1.2340344781200099 0.2718872370205165 0.9119882368882403 133 142 141
1.2599632997274099 0.2735438320286112 0.9225764734157550 13 21 34
1.2100351969755423 0.2719935899206939 0.9034873557407589 196 169 140
1.1236652711140698 0.2716503235099706 0.8904861846583113 208 173 117
1.2742665724704343 0.2715731477107791 0.9125153591095614 71 150 225
1.2787820366855425 0.2780376217965086 0.9081130540110015 59 53 41
1.2219451963010761 0.2670318685236568 0.9154603451410441 123 115 53
1.2221195778001142 0.2673829949459472 0.9134958495960788 83 68 39
1.2715252034136511 0.2706582886140735 0.9208123559537322 212 249 255
1.2529259773026991 0.2728804462792985 0.9255572812668122 20 29 44
1.2529259773026991 0.2728804462792985 0.9255572812668122 20 29 44
1.2993310169728185 0.2647067658863504 0.8936784083296949 61 58 87
1.2993310169728185 0.2647067658863504 0.8936784083296949 61 58 87
1.2959546130032393 0.2660349145885139 0.8978794673240234 122 126 112
1.2955349693360070 0.2674382952393850 0.8982891181754340 130 132 129
1.2777781209837504 0.2801363637361229 0.9337594531914730 214 254 255
1.2695458090425993 0.2732084060790405 0.9182951875066160 179 255 255
1.2774097993397810 0.2717277823966405 0.9124671094835430 115 203 249
1.2928661832740715 0.2682521138373327 0.8989465593455104 131 129 108
1.2949819282060755 0.2692956883895029 0.8974152780167918 64 54 63
1.2908836500080942 0.2700762814308142 0.9005592442765756 99 58 72
1.3374427292649427 0.2515636156793050 0.9070202247583372 45 27 41
1.2837226470206327 0.2738604872276157 0.9064862404223173 118 102 77
1.1348516788250917 0.2638980045742867 0.8929493853431928 197 74 66
1.2432908641303475 0.2678027090468149 0.9259460530188022 119 88 103
1.2174486602748960 0.2637296709052200 0.9109877509681550 255 245 215
1.2955599252631020 0.2627992531594261 0.8989644766512971 57 27 29
1.2222119733177839 0.2667912713198231 0.9140018969970133 49 43 7
1.2236195671256263 0.2679178206004689 0.9149660963912629 52 49 42
1.2986319359643470 0.2652264910298642 0.8965597484396901 26 20 34
1.2177844456312379 0.2667858324628351 0.9105698340319407 43 23 14
1.2620532532074911 0.2721898623319336 0.9222081768517122 5 42 133
1.1311448938587210 0.2658460088043173 0.8931090342922655 222 89 74
1.2223677174162579 0.2688205413065913 0.9139620777950072 168 142 105
1.1311448938587210 0.2658460088043173 0.8931090342922655 222 89 74
1.2697674635889200 0.2720814407697443 0.9195706306537311 92 161 228
1.2772696313553491 0.2695282514960051 0.9123651524032466 121 192 246
1.2929069722136710 0.2662435108036718 0.8979826246266764 75 87 63
1.2216104756746142 0.2684040605402090 0.9115247304429812 27 10 18
1.2827880821369806 0.2776721081812978 0.9296663665351705 228 255 255
1.2952438919265725 0.2670830381834128 0.8972271821823791 108 107 105
1.2425578359967093 0.2686402527818884 0.9255074816528802 140 152 142
1.1279926940488072 0.2720739897662557 0.8853213100554532 31 12 6
1.1279926940488072 0.2720739897662557 0.8853213100554532 31 12 6
1.2434165535903341 0.2690068781864475 0.9255798571126423 78 74 99
1.1299916664556562 0.2711432731937570 0.8838170584948326 28 11 4
1.1299916664556562 0.2711432731937570 0.8838170584948326 28 11 4
1.2433967913730801 0.2689634129290746 0.9255761230683053 78 74 99
1.2900817937816065 0.2691410315706136 0.9015513467835830 174 159 126
1.2920890888556704 0.2688195938909508 0.8999776131480292 176 165 119
1.2920890888556704 0.2688195938909508 0.8999776131480292 176 165 119
1.2776532003999670 0.2714491320668710 0.9110815034850293 184 232 255
1.2621974692201934 0.2757518350359237 0.9218102829059307 0 22 122
1.2707806601449614 0.2726387404947627 0.9131675141622964 78 123 182
1.2797452606308402 0.2720815831446047 0.9092681982876062 58 58 84
1.2944438760129915 0.2697358613073447 0.8977237081715713 132 115 87
1.2451321886357303 0.2711219456359183 0.9253779257685768 90 83 101
1.1952339327149442 0.2710633926432884 0.8847180894806375 170 165 172
1.2786715358156673 0.2726678157575316 0.9078554339693791 98 119 140
1.2786715358156673 0.2726678157575316 0.9078554339693791 98 119 140
1.2627629944609626 0.2722554704947707 0.9225538601269723 232 250 255
1.2687871047970303 0.2718921743756006 0.9199513343804069 124 170 230
1.2228597968064663 0.2682773542055913 0.9119401753435042 34 25 20
1.2343550979335580 0.2719070960292713 0.9042809210289612 118 91 64
1.1276637901995414 0.2708936749048884 0.8834788936185273 56 37 22
1.1853857142157338 0.2721864187153243 0.9004244015812222 112 107 103
1.2907082174024040 0.2685089665983939 0.8997007987498307 29 25 48
1.2622641383168101 0.2750355860094170 0.9214069231616492 215 255 255
1.2885119721895060 0.2693443472578728 0.9017190643403366 165 158 132
1.2929084500032451 0.2687120782408554 0.8983693988000658 20 12 23
1.2814511772355706 0.2707018113727676 0.9066644179896111 52 49 44
1.2076361756345972 0.2700266505938890 0.8806850570392848 127 34 17
1.2734738833408454 0.2774836682569433 0.9118859319476061 38 67 123
1.1990331487947308 0.2749609908351914 0.8962874779636708 174 171 164
1.1924186916923145 0.2727648419312725 0.8832303546974940 112 49 42
1.2106814077545018 0.2854907984861686 0.8922768325511853 170 154 129
1.2595090963040876 0.2577336697461149 0.9336800748861751 170 235 255
1.2911634052418686 0.2517241305434816 0.9006764028794730 180 133 123
1.2467009211567965 0.2672031443089343 0.9270548498869031 149 163 164
1.2084257933678391 0.2657949736730736 0.8702544708830968 173 137 121
1.1370551574457111 0.2669199952182735 0.8911071774337738 215 147 102
1.2182998304078343 0.2643163526753918 0.9116064895658416 52 38 35
1.1215780724679725 0.2679678362218673 0.8776660213360361 106 76 50
1.1912694493173155 0.2696985769746556 0.8802939115989352 95 36 28
1.1957880955510569 0.2687239400561414 0.8784207109821913 148 131 115
1.2482342693563175 0.4635121525823996 1.0403170762848335 202 174 153
1.1359148131181391 0.2651285381634492 0.8921743448731088 204 68 56
1.2442411910190592 0.2661652336617821 0.9268509066710977 114 71 81
1.2946247640803537 0.2590120215396740 0.8985451034004874 52 21 19
1.1363370737189455 0.2668340433594030 0.8917005770988442 206 72 60
1.3057597840738424 0.2511131539366496 0.9005573106318064 18 6 10
1.1375753310034979 0.2667497842645432 0.8910428295995499 202 147 91
1.3193067640119212 0.2581667517927779 0.9053693795802867 156 215 233
1.2421236609130619 0.2661520748213308 0.9268049259150216 102 85 75
1.1297314069847697 0.2699821167184327 0.8829040223052774 63 38 31
1.2944269239593593 0.2669983476640270 0.8979421626022054 104 101 96
1.1298492711503199 0.2704728910639601 0.8834982093821565 197 157 98
1.2178276622318573 0.2638292294127879 0.9117746640595851 255 254 223
1.2417761041453954 0.2690947865825771 0.9254753063924401 108 89 72
1.2752214034366516 0.2729966781952484 0.9126710337178408 79 75 162
1.2423431946357522 0.2694200582430443 0.9248438990755428 131 136 130
1.2756365831069134 0.2731586301222716 0.9129495393400001 91 90 183
1.2451344629769499 0.2699816477096477 0.9257848509452774 104 91 100
1.2906006031822197 0.2703430973549277 0.9013277825029058 160 153 134
1.2977067610588531 0.2616603376279333 0.8951660976192803 51 26 19
1.2459744963398660 0.2668519985877981 0.9271516347983090 146 161 166
1.2187401532325219 0.2669076807053648 0.9088394500571370 125 104 85
1.1299147185680141 0.2699347041538637 0.8820355599127241 144 138 104
1.2949638418206590 0.2677032385758427 0.8972505630583396 63 40 60
1.2200774868630375 0.2662338153311500 0.9135561604422578 226 206 171
1.2480628315204130 0.2718957012703161 0.9262845025001284 115 115 125
1.2952753289669412 0.2699401311104422 0.8969739863120844 126 119 101
1.2760673593274932 0.2732750985601961 0.9094134235184799 105 125 162
1.2622952195103700 0.2721540532414364 0.9234437526599993 29 47 87
1.2708018280091486 0.2750215607402875 0.9116102709372662 0 18 81
1.2722740474289349 0.2776825772302223 0.9124467742470778 25 31 55
1.1332072595624567 0.2638624172947744 0.8930487807188749 203 71 58
1.1335288613714420 0.2646639553986300 0.8928319989339322 213 79 67
1.2485040041962587 0.2651542337902512 0.9290393957100234 129 143 152
1.2598611746837169 0.2570890708679592 0.9345026679043635 107 133 146
1.2177096389278987 0.2648963420716877 0.9180659863968964 194 157 115
1.2942306020465950 0.2622418492871986 0.8941480778012877 114 118 117
1.2229632637555776 0.2673644111229159 0.9147350363567462 66 62 27
1.2986595289017757 0.2662837419489740 0.8951923934603137 117 128 132
1.2944526996914723 0.2630526757428459 0.8971107179530737 172 159 140
1.2785606902766871 0.2699208608312574 0.9111674559126252 123 131 142
1.2714711885257404 0.2543289430648452 0.9219804353071936 255 255 255
1.2680184082655808 0.2552435037435819 0.9242052713483768 252 254 253
1.2826020352067313 0.2784529125037166 0.9073110608058566 73 56 40
1.2845094372789450 0.2785251237614667 0.9070272683480259 83 64 47
1.2085405496551729 0.2722094696229655 0.8793366540879120 159 141 121
1.2877329057062186 0.2459594048517938 0.9058420754021280 241 224 198
1.2881115180700129 0.2749908772203374 0.9039545546933634 111 94 74
1.2881115180700129 0.2749908772203374 0.9039545546933634 111 94 74
1.1312435305055970 0.2634763298933939 0.8928536938513165 217 176 112
1.2142010401380090 0.2658307721326975 0.9106734924261950 229 200 160
1.2112205499012072 0.2605892309036507 0.8639348819029097 184 162 138
1.2784015529641084 0.2723885533378358 0.9113365896202915 83 111 158
1.2727790973902653 0.2784625316733079 0.9120208909552172 113 207 255
1.2727465175414983 0.2784038495936179 0.9120394283336400 87 186 253
1.3043100335177276 0.2513231045635507 0.8998834927538035 104 85 79
1.2996927088967987 0.2518910963775122 0.9011209833499310 31 11 13
1.2876690460666653 0.2550679983972710 0.9006861784422919 255 252 244
1.1317927818342328 0.2645556767177105 0.8924283059486414 219 91 78
1.1321604935197369 0.2643107697961283 0.8920503902886330 219 91 78
1.2437112468767952 0.2668208023727983 0.9271333067797551 91 59 74
1.2448491338206300 0.2675174983584109 0.9269480998161324 112 81 113
1.2476891368212377 0.2644890822159576 0.9277680702820768 121 133 145
1.2450730909541445 0.2680404949281367 0.9266822512763657 93 81 103
1.2182284289881711 0.2640073515312125 0.9118959733289943 255 238 206
1.2898918627612490 0.2573645652570850 0.9003647437674209 102 82 107
1.1363307658093009 0.2654190134963441 0.8923396211464134 191 146 89
1.2229334607299576 0.2662026134663492 0.9140148693215471 99 100 58
1.2181820050734649 0.2669188048000318 0.9109113543203579 28 10 10
1.2961268964743398 0.2656899751600583 0.8959527095793414 121 115 103
1.1346576623476650 0.2679448970027544 0.8913098262787807 218 81 62
1.2172386918796831 0.2641731368710492 0.9111141657021651 64 34 32
1.2719839955993926 0.2733393763652292 0.9145102736168206 78 123 182
1.2955618897102565 0.2691258965288965 0.8967710331332460 19 16 27
1.1354224904649863 0.2689202694967160 0.8901691426594848 219 85 73
1.2200391922126022 0.2663858165699013 0.9109429669144179 205 180 140
1.1383448228383142 0.2688556060555786 0.8907398357977039 204 67 49
1.2326133942380078 0.2732781738695538 0.9125700514409660 11 8 15
1.1352409099416070 0.2700299800569989 0.8903999644725370 216 75 68
1.1352409099416070 0.2700299800569989 0.8903999644725370 216 75 68
1.2978229110965571 0.2642985359661159 0.8943213316612881 118 127 132
1.2446713456982466 0.2739103725802903 0.9053649474173443 60 38 25
1.2586200410970791 0.2775286968931913 0.9220465406605109 225 247 255
1.2735472531108876 0.2773619204195913 0.9105307588733084 57 146 228
1.2662712646270708 0.2788527624569697 0.9145650855143522 198 238 255
1.2119788230760467 0.2733552614206556 0.8852138304480662 157 65 88
1.2908085575675829 0.2507331955581880 0.8996803558159775 200 160 125
1.2749123621917655 0.2725562343004690 0.9344440158821308 215 252 255
1.1338658440956462 0.2681541502693339 0.8912939193759297 222 85 77
1.2050155076997133 0.2689401376885767 0.8737350422336492 124 51 42
1.1381099502872414 0.2682055598129838 0.8900945784720559 215 153 106
1.2068624602945217 0.2691205185827433 0.8600216678539950 172 110 89
1.2651863454866932 0.2735673342781405 0.9240306681648531 184 228 229
1.2625052723702386 0.2743269350596567 0.9227807897369777 2 18 78
1.2760671674069632 0.2726379035164645 0.9127951667376853 255 254 255
1.1931502271333190 0.3066873640929338 0.9077219072970749 118 37 20
1.2065276130035703 0.2575864729325325 0.8546735763558869 193 174 144
1.2912217127840813 0.2573422227344161 0.8998342448525457 141 108 93
1.2429861530260484 0.2670969278945983 0.9265603170798533 134 151 143
1.2308350929563809 0.2692806065538704 0.9148330436943196 173 172 168
1.3032201253931537 0.2512369441877127 0.9005593781396543 28 12 15
1.2924364220114541 0.2506289019181738 0.8989115116371760 153 123 97
1.2999794456098543 0.2515954724299773 0.8992263238510845 116 93 85
1.2994450639755510 0.2520112738261314 0.8998833246007832 108 80 68
1.2625454205294351 0.2757418213797339 0.9229897778204937 0 28 135
1.2418049650145697 0.2638022585761210 0.9265226467552484 116 103 87
1.2418049650145697 0.2638022585761210 0.9265226467552484 116 103 87
1.1337729962586804 0.2666329577812919 0.8910936216017586 228 76 73
1.2175997639857821 0.2629741864117482 0.9115024954836909 115 80 48
1.2175808410395803 0.2630785693154181 0.9116661933643389 115 80 48
1.1369567629169681 0.2674033412041962 0.8912255908382731 208 67 57
1.2451546527231816 0.2699745773219215 0.9258202214029718 104 91 100
1.1346185451911317 0.2674900595474585 0.8901403079849767 225 178 122
1.2945346935032980 0.2621536809535905 0.8981010315464800 55 25 23
1.1373654270269671 0.2681127840550762 0.8908758691586931 215 73 63
1.1375550295864933 0.2689447622350990 0.8906339829577032 203 75 62
1.2231861810124001 0.2686715959192715 0.9141598227105698 73 62 60
1.1230386731387845 0.2800249247062160 0.8895608910244894 168 126 78
1.2880131402161425 0.2716657713789406 0.9016384709191181 116 100 74
1.2795328236267887 0.2827465691500466 0.9064273153712338 84 75 58
1.1844926428727545 0.2778647941476604 0.8990360019691107 8 4 5
1.2049307982450670 0.2714467728163262 0.8781510501770718 130 95 75
1.3025463908984016 0.2514435681380715 0.8993405177026786 110 91 85
1.2913671750932434 0.2548009502239406 0.9001588998997123 160 119 115
1.2763981719187010 0.2759917066537246 0.9156713285880089 248 252 253
1.1343409481308133 0.2686204761032198 0.8913547595937183 254 152 104
1.2828838480511171 0.2745659679275751 0.9063469243325915 100 80 56
1.2766632758267089 0.2774382000606253 0.9101312502000849 16 16 24
1.1394642024355104 0.2686558312498254 0.8896404758057170 204 67 48
1.1841701585080522 0.2730977634686046 0.9007060323646769 7 5 6
1.1361421717812479 0.2689975264039411 0.8908622406821470 208 166 108
1.2713057725557195 0.2544023054085693 0.9207915071033789 252 254 253
1.3061429738136170 0.2506830190054877 0.9020559416181479 49 35 32
1.3061429738136170 0.2506830190054877 0.9020559416181479 49 35 32
1.2643144703351947 0.2605993993889718 0.9374916198597246 252 254 253
1.2724389079430021 0.2770611636886157 0.9127487652596797 20 23 40
1.2654881435636498 0.2773434321763442 0.9185576704568585 105 111 111
1.1315204726729546 0.2633691897568609 0.8926063197940675 211 166 111
1.2455238226210956 0.2678470328933292 0.9267775870611851 152 152 162
1.2771601299077697 0.2684805017547414 0.9131158514567437 246 254 255
1.3057597840738424 0.2511131539366496 0.9005573106318064 18 6 10
1.2204887604549723 0.2690833007153419 0.9112081411985555 124 108 85
1.2694951583301635 0.2734086672910329 0.9188447127962622 104 183 239
1.2768659281701680 0.2811294649841534 0.9324943125618708 23 111 211
1.2475117150408994 0.2643122183313957 0.9276098737673169 102 111 126
1.1319191055015401 0.2739729567901024 0.8815334682680743 23 12 6
1.2444978675627287 0.2681456869620436 0.9263467869985050 133 114 108
1.2656786887859393 0.2793605615925707 0.9155876344259665 166 235 255
1.2669712329243228 0.2786822879321089 0.9139515105535442 140 202 249
1.1343371749230999 0.2630746319314885 0.8933471304180008 196 71 49
1.2711341734897861 0.2706462201596619 0.9184903506012990 222 250 255
1.2053844222146939 0.2741178511358539 0.8941944096657952 130 115 112
1.2772267437614966 0.2687816808192421 0.9125516924113219 94 175 240
1.2228454802767244 0.2688238069140631 0.9138909498003474 72 53 46
1.2205806198117370 0.2686668121189105 0.9119407677667487 236 212 178
1.2777966531210061 0.2812559399582737 0.9379522073762291 61 157 234
1.2777966531210061 0.2812559399582737 0.9379522073762291 61 157 234
1.2681050880521689 0.2772908338393548 0.9295015199438810 207 236 250
1.2981713916123454 0.2668774579787269 0.8956815581433438 76 81 137
1.2035654251967209 0.2739213668024588 0.8894034665546754 114 50 40
1.2985126269865230 0.2676314929094638 0.8953751526650303 99 104 100
1.2033149366558573 0.2730737000686103 0.8878027209940902 159 123 99
1.2058074247302883 0.2732248338378601 0.8881160631112878 187 158 144
1.2911524747510195 0.2686746237708466 0.8989531185893965 29 20 23
1.2777287178420709 0.2717941148280487 0.9099199748376163 22 52 112
1.2054138519050681 0.2721895100714546 0.8856809368299522 124 39 36
1.2033745974994570 0.2721801068388122 0.8853380815642563 118 77 71
1.2609154166703844 0.2803750881503733 0.9188031098444184 12 34 120
1.1388183803454539 0.2696709798505181 0.8902655557561500 201 66 46
1.2993850696939515 0.2649121455428990 0.8950753821040940 118 127 132
1.2049523169901668 0.2703178773260174 0.8798812782275994 93 64 56
1.2178412701404411 0.2673123279292716 0.9104847483643698 45 22 14
1.2024614911806881 0.2740585759138933 0.8936379971051990 179 164 157
1.2780605706487029 0.2824279019540912 0.9367914395751337 166 239 255
1.1310238624623674 0.2724394675087822 0.8835253228890556 161 123 76
1.2080462340502915 0.2732873255627053 0.8894532077307324 187 158 140
1.2088503949169336 0.2680952020588849 0.8751502408416912 179 160 143
1.2047375663995850 0.2727385658709851 0.8873735171528664 116 43 37
1.2047375663995850 0.2727385658709851 0.8873735171528664 116 43 37
1.2066803019363328 0.2721547609486792 0.8865695140339297 139 120 105
1.2051126019988656 0.2727576167177161 0.8861859947106715 122 59 44
1.2006097333195627 0.2730203708830581 0.9046216291514851 149 127 113
1.2003083414299731 0.2738406679478046 0.9049138512302335 93 79 68
1.2031218030149642 0.2712899233729326 0.8824718896021514 158 136 122
1.2082515057285432 0.2703583397342308 0.8812137491366464 131 46 41
1.2056718547200194 0.2712726094035935 0.8821040859238715 93 60 41
1.2057320139221295 0.2710680291355773 0.8818865281001094 93 60 41
1.2056801400812780 0.2708675423149181 0.8816630659887726 93 60 41
1.2029339862388195 0.2747105741677718 0.8937467291369408 179 169 168
1.2073754447135250 0.2646377267199915 0.8681175204351929 180 127 113
1.2060813676095452 0.2717612172804808 0.8845049322420954 127 68 54
1.2767687925277300 0.2595232557787375 0.9114189910426818 172 253 255
1.2088646459883536 0.2704122768766580 0.8809504248499311 170 137 118
1.2084078798684699 0.2658279937539573 0.8703172012584259 173 137 121
1.1716429022819401 0.3563578029405393 0.9224955493195011 173 157 144
1.2722633020431537 0.2778260687918853 0.9124777863276889 25 31 55
1.2739046168586754 0.2775514727591799 0.9099239365446333 14 9 29
1.1984430171852514 0.2732026703739604 0.9035076280538896 11 10 8
1.2176975145819890 0.2631394517186401 0.9120615425304283 115 80 48
1.2078836447757302 0.2730572834185511 0.8884633714627657 172 97 91
1.2187027256110952 0.2670197381115032 0.9083446388279136 119 101 81
1.2326515600109109 0.2695246501096397 0.9142499839031951 31 30 46
1.2782081870563573 0.2809594345898286 0.9369908348589587 247 252 255
1.2782081870563573 0.2809594345898286 0.9369908348589587 247 252 255
1.2752481639697764 0.2771792434805281 0.9103621131616739 37 79 101
1.2623996829499702 0.2793066824983641 0.9164714017094615 243 249 255
1.2623996829499702 0.2793066824983641 0.9164714017094615 243 249 255
1.1996750465323254 0.2733115775113878 0.9042055995067365 122 107 88
1.2031674980687663 0.2721861543566037 0.8855576245826602 125 78 70
1.1987238550026160 0.2761052411292915 0.9032728699255919 18 14 15
1.2032348269679183 0.2747991455906184 0.8944381680686184 141 124 117
1.2081554868810265 0.2720362960546677 0.8863930164151997 168 141 120
1.2084927277265707 0.2717352488269328 0.8847777029576598 115 77 68
1.2045533334236493 0.2697785916182363 0.8792613516563474 161 142 128
1.2045533334236493 0.2697785916182363 0.8792613516563474 161 142 128
1.2048060944256473 0.2720008198148538 0.8847676223643332 159 136 120
1.2063858646368586 0.2716022687803978 0.8839285604032765 174 140 113
1.2090450531384660 0.2706863460530182 0.8817079743140183 149 52 46
1.2094773163382024 0.2703991712560337 0.8813419742689497 166 149 131
1.2070530962756132 0.2699472320857109 0.8796632786256430 178 165 149
1.2070530962756132 0.2699472320857109 0.8796632786256430 178 165 149
1.2068404749410071 0.2696622644245242 0.8788127039983843 147 53 51
1.2771606271141180 0.2803613427805223 0.9332992876186776 223 246 252
1.2763922819093112 0.2672554512785423 0.9128373087986481 245 255 255
1.2179391961425849 0.2669214484231491 0.9108131223935855 52 33 26
1.2231812296065845 0.2686359841104363 0.9141663068979931 73 62 60
1.2991737930132043 0.2649434117648475 0.8947116079086721 120 130 132
1.2748545698198883 0.2791560110021337 0.9347185399660217 56 115 173
1.2753284125579645 0.2737222643637307 0.9220384007028789 68 137 241
1.2147792548778518 0.2695801143003461 0.9118116275334358 109 87 64
1.2959653463822469 0.2706292571035118 0.8926225734217454 44 40 41
1.2082085338672399 0.2637773508718735 0.8664249977416524 193 178 155
1.2082085338672399 0.2637773508718735 0.8664249977416524 182 164 142
1.2070602495895431 0.2715053641934682 0.8839550502652955 142 61 58
1.2067148299371815 0.2676071247198124 0.8742939089278350 137 114 98
1.2350392315709373 0.2748774911202190 0.9119777836879138 78 57 40
1.2615423532003835 0.2802373980249279 0.9176868060689710 235 248 254
1.2007369469219620 0.2724130465076831 0.8863328494940680 136 78 77
1.2050729905963695 0.2726928556148709 0.8873832364812934 161 133 119
1.2107583542309688 0.2677226124461464 0.8738464790699000 174 164 154
1.2781539702112594 0.2670164255328311 0.9112077026116612 132 132 132
1.2710639408737232 0.2724222953701186 0.9160900037938801 244 248 251
1.2942152490375332 0.2678671747398657 0.8935722540849763 22 17 24
1.2153445892958219 0.2755627631331175 0.9034568602581758 6 4 5
1.2448837560818906 0.2686800584043818 0.9265688890572398 137 131 133
1.2977213236395249 0.2641830898200645 0.8947400475455369 22 16 42
1.2977213236395249 0.2641830898200645 0.8947400475455369 22 16 42
1.3227571538862379 0.2262330976948743 0.9182342915770040 115 102 86
1.2697744224541689 0.2714070498379823 0.9195258103356205 92 160 225
1.2928244916820755 0.2645985377130518 0.8958822127493116 121 118 103
1.2083356039206854 0.2661453219400680 0.8710278570794023 111 71 61
1.2732937525957622 0.2815554338088525 0.9359342785970312 231 251 255
1.2884097695743317 0.2683097599280653 0.9001910813490488 174 159 126
1.2909572873163413 0.2694876829424395 0.9004969834266623 165 157 138
1.2090838444782970 0.2631028481343427 0.8654902875514948 143 50 42
1.2916794033116719 0.2704373156484075 0.8969209404058143 37 25 37
1.2326944768481052 0.2731445974199743 0.9117964887924899 118 134 147
1.2905117404652131 0.2578423462324788 0.9009127797340696 123 100 116
1.2962229892235038 0.2520905665620557 0.9008826535486552 52 21 37
1.2173384442800215 0.2628371568843846 0.9118976180542904 116 82 54
1.2173384442800215 0.2628371568843846 0.9118976180542904 116 82 54
1.2915065218949806 0.2619217097667936 0.9002068786212651 121 90 87
1.2915065218949806 0.2619217097667936 0.9002068786212651 121 90 87
1.2904558585768313 0.2574044290950877 0.9009661141414518 110 78 89
1.2744112408998667 0.2828589369288628 0.9080342639101339 97 91 57
1.2297908676987304 0.2687221653926317 0.9139724498950704 44 27 46
1.2195316044223152 0.2688632647840682 0.9119144657019829 236 211 180
1.2623220701724018 0.2732126832213975 0.9217494701927522 91 201 255
1.2199448615594402 0.2680763368043315 0.9101387643511181 107 85 64
1.2954664653904693 0.2675188323378790 0.8966309383459724 11 9 20
1.2057714768066889 0.2733981087334342 0.8886905522221743 138 63 68
1.2057714768066889 0.2733981087334342 0.8886905522221743 138 63 68
1.2023422211894041 0.2739611138620449 0.8888664758399754 164 151 134
1.2023422211894041 0.2739611138620449 0.8888664758399754 164 151 134
1.2761849914274552 0.2720570871989979 0.9123701287561090 104 160 211
1.2889511774719677 0.2692446028135064 0.9019656897536337 183 172 144
1.2641696662870554 0.2763081540868703 0.9207566691840577 105 121 170
1.2744193528022354 0.2733547553910775 0.9128782270584711 45 96 188
1.2711689432627393 0.2795818187523051 0.9425964716330908 129 174 195
1.2788373878110417 0.2727046296902949 0.9096098497791304 84 103 133
1.2785144439848362 0.2729664096630600 0.9096560839951037 57 75 111
1.2791486886297005 0.2705393654109426 0.9095011238231998 137 166 162
1.2731282814348179 0.2730849205027468 0.9158999657861885 242 255 255
1.2834550787250660 0.2696634682659217 0.9057527017180046 44 36 59
1.2834550787250660 0.2696634682659217 0.9057527017180046 44 36 59
1.2094574099125073 0.2682123624001000 0.8754664318051973 119 90 84
1.2088921427457435 0.2682262353501073 0.8752779141468001 179 160 143
1.2041519538882941 0.2714754779664563 0.8822433292907838 177 149 137
1.2069155397257036 0.2705164551994192 0.8808211631256414 177 165 149
1.2081155485115143 0.2660563291600446 0.8708201279187456 167 133 108
1.2097019651866077 0.2653074772046763 0.8696688370468443 136 117 100
1.2088499025735886 0.2648989945804668 0.8684974083876269 179 161 151
1.2901560009124911 0.2559766740875501 0.9028026368603920 255 252 244
1.2907861837583472 0.2575702919645865 0.9006422097705225 255 255 197
1.2095876725551384 0.2630880244313375 0.8654976964971179 144 54 46
1.2087607275060164 0.2630802059836261 0.8653733988250711 149 57 46
1.2765195348156675 0.2635647031559240 0.9105538020707555 110 133 201
1.2091596584527702 0.2659115093278291 0.8707131002724354 151 55 67
1.2085829837468776 0.2653994860965784 0.8696484113194544 146 52 52
1.2719118046971924 0.2778638517886085 0.9120913368262197 18 22 51
1.2887664796609055 0.2555630758857567 0.9014581130557495 255 254 253
1.2886897054748290 0.2555066692943980 0.9014239296181421 255 254 253
1.2097796242174668 0.2619621724106871 0.8635968861560513 168 56 45
1.2092960587316413 0.2619199939359219 0.8633775417737833 158 54 45
1.2443704053856239 0.2692605684733207 0.9256391648413369 134 145 149
1.2328012627608056 0.2693607498459020 0.9125700395602614 141 147 145
1.2129764872495459 0.2687723556019202 0.9105826325972004 19 14 20
1.2130453281741382 0.2687000657669130 0.9103546162099125 19 14 20
1.2145916892964157 0.2693294938930579 0.9111985529825842 50 37 28
1.2756454139006854 0.2733505565828834 0.9114394173153948 255 255 255
1.2772687106942555 0.2721992529957372 0.9135245844947996 243 253 254
1.2781332396407281 0.2740159777099999 0.9162439134912312 248 255 255
1.2663238601596190 0.2788932137928913 0.9140106545198278 127 200 253
1.2074603478386061 0.2715115566564804 0.8831814940328419 171 153 139
1.1842653984120957 0.2739384869588457 0.8827168152511466 107 86 67
1.2872144388323279 0.2487971419627516 0.8916731196224970 118 91 74
1.2156303807601125 0.2602317558047195 0.9122193742192632 251 247 235
1.2068015518511745 0.2708646086126730 0.8817731147965782 161 147 136
1.2179391961425849 0.2669214484231491 0.9108131223935855 52 33 26
1.2088942703442460 0.2631554139618414 0.8655461330282970 165 75 66
1.2920123680642146 0.2474326480101499 0.8998426535679757 140 117 103
1.2891033419705633 0.2517834197891142 0.9017984700675582 212 192 165
1.2885496969747210 0.2543328635042607 0.9011590038357199 200 183 157
1.2906132105989110 0.2541817692682464 0.8995804433638409 148 108 83
1.2178283042982689 0.2647102288041225 0.9115357439918301 68 49 32
1.2611937156899151 0.2759464108476410 0.9215064920570710 15 30 51
1.2808870573843547 0.2716011901222412 0.9077025742420692 55 49 49
1.2077264633777463 0.2749574934905116 0.8989864017457179 179 162 152
1.2077264633777463 0.2749574934905116 0.8989864017457179 179 162 152
1.2610533098520300 0.2800534585126008 0.9167375861447727 227 255 255
1.1369122878631985 0.2624937429625768 0.8920199223861286 193 67 42
1.2153295948797413 0.2613897301718761 0.9101437770589916 175 142 101
1.2912815810960665 0.2495650517218385 0.9057542646935828 169 180 182
1.2968702962144498 0.2508209322603279 0.9004129054812756 34 16 12
1.2903805589954056 0.2558121093792287 0.9009168597837914 255 255 255
1.2162067430903893 0.2612301499567325 0.9155546387163220 254 253 249
1.2174565772448311 0.2629032253086704 0.9127135904495132 255 252 237
1.0825617250727235 0.2670167211267085 0.8862245121803966 122 91 71
1.1826496185295521 0.2686433202373250 0.9033605563499090 18 10 8
1.2802131454403269 0.2714421610228864 0.9088776256223419 106 98 85
1.2866099546216103 0.2679826573697879 0.8989805677966747 133 138 116
1.2905043137172096 0.2689267083635049 0.8992893752692630 152 135 109
1.1352021322103238 0.2678336346216447 0.8926837256613483 201 143 95
1.2790919404019532 0.2722454274163242 0.9097375830677502 35 42 70
1.2790919404019532 0.2722454274163242 0.9097375830677502 35 42 70
1.2771925300600036 0.2678293159505785 0.9131429077073170 226 251 255
1.2009669302250692 0.2654869102292063 0.9025306683240840 101 86 67
1.2788945488442389 0.2702415463854272 0.9106997421568785 81 83 106
1.2721314112164173 0.2724238816675067 0.9139351766854044 12 106 219
1.2754166275249998 0.2728554954694902 0.9142194300715283 152 216 255
1.2754166275249998 0.2728554954694902 0.9142194300715283 152 216 255
1.2908707830522399 0.2688846340995266 0.8989779270111012 131 114 94
1.2716226304049882 0.2730714736288977 0.9134806081198198 117 180 247
1.2569160926265466 0.2770253031570606 0.9213269481476423 5 8 23
1.2587901794271152 0.2767623630443958 0.9204400267917023 210 255 255
1.2777237871010183 0.2729409752150062 0.9106550405545889 47 36 66
1.2710173648237379 0.2750002869229702 0.9120839543806193 132 188 235
1.2651031384496294 0.2788573468506279 0.9139658486478707 93 174 230
1.2834811930395975 0.2767062258819215 0.9055292106309183 16 8 6
1.2612084654083122 0.2797703608463159 0.9146942974338595 234 250 255
1.2612084654083122 0.2797703608463159 0.9146942974338595 234 250 255
1.2061205850993379 0.2730749401324633 0.8876117783500764 129 116 97
1.2057190279017602 0.2730645728279984 0.8873759721398424 167 146 127
1.2766287990697485 0.2828745787822351 0.9073144669690346 99 98 93
1.2731455556857552 0.2833038899827136 0.9080856637912499 111 115 127
1.2919276825132366 0.2663872495019147 0.8945778074036964 96 90 90
1.2066585394326459 0.2720859080680967 0.8843391434736555 173 138 116
1.2640055408976822 0.2797302622897684 0.9148667882146195 231 249 251
1.2063651117290675 0.2751356227029928 0.8953670785545973 134 120 117
1.2074557356198528 0.2739026113652001 0.8898553835012455 175 154 137
1.2673694863233844 0.2793785202644634 0.9128859735368006 98 99 103
1.2693923923920782 0.2643476872972448 0.9503656759492339 235 247 247
1.2579539904885155 0.2768879302366234 0.9205253456561333 181 253 255
1.2615892446674886 0.2808932230537029 0.9151197780391149 10 19 76
1.2745015345535640 0.2838463758611063 0.9075174299729926 121 125 100
1.2098808508581615 0.2744120278752306 0.8909987840404042 179 142 113
1.2037675822358207 0.2727292496831902 0.8843951732732519 154 137 121
1.2135696940166596 0.2758068611387651 0.9034046661245212 7 5 6
1.2736759656087970 0.2838522109201929 0.9077681771244003 25 24 42
1.2798047618044277 0.2834219204929064 0.9051284906498587 23 10 20
1.3017572452945061 0.2420269264255845 0.9177804641278965 23 15 36
1.3017572452945061 0.2420269264255845 0.9177804641278965 23 15 36
1.1830819085177748 0.2685874791686358 0.9030164166034231 11 9 10
1.2768155301648292 0.2715708576127859 0.9124944888501058 231 249 253
1.2788558636681742 0.2674535802486397 0.9188310738473581 252 255 255
1.2057193320896127 0.2723015613653081 0.8841866308799341 131 75 62
1.2057193320896127 0.2723015613653081 0.8841866308799341 131 75 62
1.2079526545511692 0.2720358563920569 0.8839290004625333 175 152 136
1.1834210106765686 0.2735665899505920 0.8788531155722918 134 116 96
1.2076934550165734 0.2711506553655825 0.8817943988542253 119 44 23
1.2778656144152798 0.2770414516344771 0.9085108566231050 58 52 38
1.2892728475521844 0.2714055606384577 0.8985978892082006 13 13 15
1.1844846536791498 0.2714079170871373 0.8749945295005946 110 92 70
1.2647084664835269 0.2797715292469715 0.9140238311297298 105 189 253
1.1115439313330180 0.2604592843277601 0.8888384257681464 170 125 84
1.2299346048205626 0.2693480134889882 0.9148552893536500 49 27 39
1.2215102433058174 0.2680838426463618 0.9107130906335942 19 2 8
1.2189476146705500 0.2680868761924083 0.9085480704281296 83 64 50
1.2612711654305402 0.2797586712119851 0.9150652784101604 17 24 79
1.2603976448877034 0.2591368561442827 0.9367456731412201 151 215 250
1.2661715821016351 0.2804884880512686 0.9132428231980708 78 73 113
1.2170744125149899 0.2634554432144857 0.9123807500444772 255 239 213
1.2225794339985145 0.2676147911428685 0.9147761872335957 65 61 23
1.2225403135345561 0.2672403504493938 0.9139408399315699 65 61 23
1.2204878876331982 0.2689439559434997 0.9121642091624379 248 225 184
1.2933359691202506 0.2653395177382052 0.8968467618552821 113 113 113
1.2228101076481424 0.2689317367110460 0.9109678504322575 56 43 27
1.2183955198932614 0.2680025728510509 0.9083902453175169 63 46 28
1.2801784855308576 0.2661652750907105 0.9194209896447728 134 203 234
1.2801784855308576 0.2661652750907105 0.9194209896447728 134 203 234
1.2777173882590089 0.2637431271764092 0.9142376439980985 146 210 238
1.2664257207615155 0.2794792640107803 0.9138986110494347 131 202 246
1.2724691116250406 0.2791657142453821 0.9114532172203742 86 88 74
1.2131845470599008 0.2765714140859765 0.9015528188903248 131 120 116
1.2196524497320946 0.2691905254207935 0.9108657439322649 132 111 90
1.2759873803581760 0.2731160696293676 0.9120938054063453 255 254 255
1.1977518393682274 0.2727506712270533 0.8814298530681987 153 119 110
1.2043044236787861 0.2795453843091132 0.9006011328654843 134 116 114
1.1840477370565476 0.2754866565486902 0.8879919339796961 107 92 73
1.2078663951258750 0.2742553546871498 0.8902816140758383 167 145 124
1.2192904463611645 0.2572220089910670 0.9135997173322303 255 254 248
1.2791578604334286 0.2666218504875284 0.9213139406358800 251 252 255
1.2611686922706216 0.2808643954320709 0.9158593988245611 201 244 250
1.2702726485584586 0.2785465638079709 0.9088258709476273 50 51 45
1.2222983721517868 0.2690091181052185 0.9120598629480574 227 201 174
1.2866436540294435 0.2677917844027181 0.8996113177671857 165 153 127
1.2774800516015208 0.2683161096258642 0.9237399068815272 152 224 246
1.2762453126164259 0.2725419295388503 0.9118229832807910 254 254 255
1.2830110928208689 0.2831746424322574 0.9415116852068511 75 128 230
1.2640131908587162 0.2797668205608345 0.9148612729752936 231 249 251
1.2632858527860256 0.2799814421907482 0.9142003829726202 14 33 76
1.2009067880182156 0.2754553223931007 0.8978473190624584 159 140 123
1.2062198638992976 0.2726031427056158 0.8849683821568497 164 129 107
1.2062198638992976 0.2726031427056158 0.8849683821568497 164 129 107
1.2730666984923773 0.2755668684370967 0.9136951789248666 240 248 250
1.2040617141047028 0.2717737935803508 0.8814090756678189 155 139 123
1.1612001482559406 0.3311570198447714 0.9291098824340903 159 140 125
1.2274884188703030 0.2689575316902917 0.9133393708377473 20 18 21
1.2170308975347019 0.2684120957228776 0.9098571855434953 49 34 27
1.2628001253763554 0.2800900271889190 0.9151549845541812 22 32 57
1.2715255403009154 0.2684597022775546 0.9220054948192589 250 255 255
1.2213456652467158 0.2689513848220934 0.9147750247001940 178 158 125
1.2797707047128530 0.2735114556362634 0.9054258462948628 75 60 37
1.2153317170779787 0.2650418281563151 0.9129535646379526 250 228 191
1.2733402962248979 0.2731385112057945 0.9100535406512861 255 255 255
1.2196114666312010 0.2767750384911766 0.8935172553431071 170 160 151
1.1836746944111232 0.2765174811842439 0.8982675134291479 67 54 38
1.2101371371964020 0.2748506961457523 0.9053399059433290 186 161 130
1.2101371371964020 0.2748506961457523 0.9053399059433290 186 161 130
1.2798392735324324 0.2717146972445790 0.9095528701304829 101 102 104
1.2127545859429374 0.2762365307661241 0.9049561309652712 16 8 5
1.2250218199469836 0.2663692479560502 0.8722985765051073 191 163 139
1.1892212544707534 0.2745724680588209 0.8875903297958044 134 116 102
1.2178487505896376 0.2669544626573032 0.9112457225609285 152 134 110
1.1998691445598628 0.2745567412819286 0.8893328392661856 127 46 43
1.2765977908762651 0.2717532772764649 0.9227191515036519 103 198 255
1.2786971045960007 0.2713172696514399 0.9110643578451101 105 136 183
1.2788619322886916 0.2718147709042174 0.9104940304071204 26 63 141
1.2865683589243244 0.2675515805714663 0.8989527224804742 99 88 96
1.2736435877185899 0.2742831067985266 0.9147319431589124 128 116 202
1.2734043232138490 0.2740606806973796 0.9143231928033579 128 116 202
1.2772534010989272 0.2736317013799304 0.9112810010661083 80 120 155
1.2584325842997730 0.2805794917245461 0.9147402599253540 7 7 17
1.2636666785277444 0.2803503869901383 0.9120574996843070 196 249 255
1.2140492646996295 0.2777795791678771 0.9036688049028316 112 94 72
1.1913270189219702 0.2746199983477612 0.8880357642842015 147 121 108
1.1963896421211142 0.2747087416263571 0.8895341557087773 109 69 69
1.2013541738740523 0.2745474038996096 0.8894712181184814 147 135 123
1.1970191272309982 0.2729200263225606 0.8824765245588069 150 128 115
1.1977986156563212 0.2727305508214800 0.8813996645246253 153 119 110
1.2650398150027029 0.2796230298039530 0.9127371852213251 227 241 241
1.1967046599711744 0.2726227788622367 0.8801985565364352 153 108 102
1.2642591392060103 0.2810988917231432 0.9120049744882230 95 125 135
1.2674676806287224 0.2831539408936541 0.9123137146166366 106 155 172
1.1968152732756827 0.2721339719510588 0.8779793126728248 121 43 39
1.1974321252491205 0.2741692323014338 0.8879282025138788 110 38 42
1.1966047593031672 0.2724764151298195 0.8799111867235979 129 61 58
1.1980910555671256 0.2719460907162607 0.8780874204565670 152 118 93
1.2005672960733995 0.2717874751784768 0.8782044273718346 99 70 66
1.1852696843194892 0.2750649561862103 0.8897014902244568 107 95 81
1.1901233069593049 0.2742056123554467 0.8847748609765350 113 43 45
1.2002983013488566 0.2738085120586412 0.8870248427397095 149 130 115
1.2023153737319516 0.2741954101368789 0.8879268369381597 99 58 52
1.1923106933066252 0.2730530813124738 0.8811863743581924 136 53 49
1.1963950069404647 0.2727729013976785 0.8816283556205996 155 142 126
1.2753681484500077 0.2744671518996817 0.9112327857339290 84 146 233
1.2750075065734852 0.2786558101130405 0.9100596107408003 59 62 41
1.2750075065734852 0.2786558101130405 0.9100596107408003 59 62 41
1.2495325032985904 0.2819043925622208 0.9167263965869149 44 45 47
1.2741293320586948 0.2771451268078306 0.9103057694494604 18 15 44
1.1985089998330076 0.2745982061970224 0.8893797843415330 114 40 39
1.2003137589517736 0.2746905748890646 0.8897362060704084 124 49 46
1.1996648496132829 0.2724066168568411 0.8805519924885644 109 88 67
1.1975645798927794 0.2718942774118301 0.8777286160915029 148 114 86
1.1913055891881366 0.2741915526993239 0.8854114033869147 123 59 49
1.1947670180959837 0.2727873346006598 0.8807468162425541 121 69 73
1.1957798519364005 0.2727572626053419 0.8809100854856717 155 143 129
1.2229784255125766 0.2684609182937600 0.9117203851544756 21 16 13
1.2006863518333064 0.2720537914424211 0.8798124495883631 158 142 129
1.1997695743546124 0.2720393544908756 0.9024672408882563 12 10 11
1.1986722190667760 0.2721723644042102 0.8793773617086004 154 141 124
1.2634411276370978 0.2811478696355458 0.9120073834976421 4 11 27
1.1960906967448062 0.2724422453361339 0.8795687901572363 150 136 123
1.2797983649530653 0.2708707559288993 0.9096060930629482 106 112 124
1.2835529978692697 0.2705541028600915 0.9055864527369089 22 16 26
1.1868559744870955 0.2759992088408444 0.8921889663866491 128 120 118
1.2125346318996271 0.2727839743401801 0.9062121300747416 166 142 114
1.2125346318996271 0.2727839743401801 0.9062121300747416 166 142 114
1.2130702384060903 0.2740601259372873 0.9044925427574451 101 79 56
1.2130775008526471 0.2748947210772719 0.9052286376589186 135 109 84
1.2461444243907811 0.2683191741064065 0.9269818735993736 108 73 79
1.2047753309427427 0.2713834707472685 0.8744426225575211 131 52 47
1.2453763792009089 0.2697680868410343 0.9257162890561526 57 68 90
1.2708183249403582 0.2703258641056159 0.9303590111608294 251 255 255
1.2226947303146707 0.2685081452136380 0.9127778025845579 164 144 111
1.2196964151057690 0.2680626962523641 0.9094391321145324 37 38 33
1.2698724809286852 0.2741481475876109 0.9178899425787485 162 215 249
1.2770969744099359 0.2722269638992711 0.9124512513886952 237 255 255
1.2687185364354649 0.2744395278406893 0.9181210886155419 121 169 217
1.2730487155055561 0.2730938430624264 0.9149635124823392 200 241 255
1.2041520688889533 0.2748073989555064 0.8868044186613470 129 56 47
1.2797618640473467 0.2721803951405311 0.9099248053245050 33 47 92
1.2718954054664706 0.2739699297275783 0.9144857739207241 152 212 236
1.2782473901544924 0.2729148637142054 0.9107785854036469 30 49 107
1.2783261339049619 0.2733255127146434 0.9106457770966587 20 62 136
1.2128667854238937 0.2730776880709088 0.9060713119411765 21 10 6
1.2131762036784326 0.2745309277598557 0.9038250240184259 107 83 55
1.2718648440261457 0.2740732246647944 0.9157588330892563 252 255 255
1.2732071693540252 0.2738051354728156 0.9148666136732181 255 253 255
1.2066569678716175 0.2749835439751861 0.8896174036413429 136 98 85
1.2643168909448881 0.2788677382561981 0.9152694881348172 66 99 166
1.2636830038947131 0.2791941853765401 0.9149118271308025 31 70 161
1.2553809325805845 0.2812166406577015 0.9128554995064365 79 81 60
1.2120033833043573 0.2736886504723827 0.8840413695114543 140 53 43
1.2765436016606673 0.2706806242442909 0.9167556842625167 247 252 255
1.2730654852917940 0.2752684695083074 0.9142747639589607 248 251 255
1.2132547508455589 0.2744990809983778 0.9062493932739177 13 9 10
1.2694223341039121 0.2743379679350934 0.9186500914745140 124 177 219
1.2741111490376882 0.2731308362119919 0.9147899038151148 173 233 255
1.2065033750401464 0.2748557027644463 0.8905277468434357 172 155 139
1.2088663758123366 0.2754562321744197 0.8916452811543923 167 140 113
1.2757762272149153 0.2785591641801536 0.9103884987263723 5 10 29
1.2614395987524369 0.2828887230870123 0.9147027356093589 107 142 146
1.2614395987524369 0.2828887230870123 0.9147027356093589 107 142 146
1.2625967415425881 0.2815043723665635 0.9120780079955940 110 148 137
1.2129794936755087 0.2687159582526638 0.9097818345953973 13 9 10
1.1995319315988868 0.2723464690959505 0.9028936813194091 12 10 11
1.2597250282180374 0.2829238471546758 0.9168964211816033 7 11 20
1.1981728647855074 0.2713823163252440 0.9003851582873278 159 147 135
1.1764068939509311 0.2358242282181365 0.8337629743663332 0 255 0
1.1822420546964656 0.2325385434123398 0.8334273388015372 0 255 0
1.1890957557492750 0.2303513555561578 0.8327621184946234 0 255 0
1.1950175288510538 0.2291920336788345 0.8320752305826834 0 255 0
1.2020696836734033 0.2271338466339727 0.8323719352226011 0 255 0
1.2095191907292129 0.2256912309196804 0.8332285394521075 0 255 0
1.2186570199117144 0.2252613681395916 0.8350267365159887 0 255 0
1.2268828035256660 0.2262812313037510 0.8370292009213730 0 255 0
1.2349612398367809 0.2277053708024905 0.8386904322015170 0 255 0
1.2445923385413318 0.2289151096863196 0.8410550492580848 0 255 0
1.2531746346399053 0.2319355135108479 0.8454759078919856 0 255 0
